<svg xmlns="http://www.w3.org/2000/svg" width="17.126" height="12.972" viewBox="0 0 17.126 12.972">
  <path id="Path_4823" data-name="Path 4823" d="M16.216,37.266a1.081,1.081,0,0,0-.187-.014H3.358l.233-.108a2.164,2.164,0,0,0,.611-.433l2.992-2.992a1.12,1.12,0,0,0,.157-1.434,1.082,1.082,0,0,0-1.623-.141L.317,37.555a1.082,1.082,0,0,0,0,1.531h0L5.728,44.5a1.082,1.082,0,0,0,1.623-.108,1.12,1.12,0,0,0-.157-1.434l-2.987-3a2.164,2.164,0,0,0-.541-.4l-.325-.146H15.97a1.12,1.12,0,0,0,1.142-.909A1.082,1.082,0,0,0,16.216,37.266Z" transform="translate(0 -31.842)" fill="#fff"/>
</svg>
